<?xml version="1.0" standalone="no"?>
<!DOCTYPE svg PUBLIC "-//W3C//DTD SVG 20010904//EN"
 "http://www.w3.org/TR/2001/REC-SVG-20010904/DTD/svg10.dtd">
<svg version="1.0" xmlns="http://www.w3.org/2000/svg"
 width="700.000000pt" height="700.000000pt" viewBox="0 0 700.000000 700.000000"
 preserveAspectRatio="xMidYMid meet">
<metadata>
Created by potrace 1.14, written by Peter Selinger 2001-2017
</metadata>
<g transform="translate(0.000000,700.000000) scale(0.100000,-0.100000)"
fill="#000000" stroke="none">
<path d="M498 6102 l-68 -3 -1 -64 c0 -36 -1 -80 -2 -97 l-1 -33 170 -1 c149
-2 175 -4 210 -22 69 -35 110 -96 139 -207 23 -88 25 -149 30 -810 2 -330 6
-618 9 -640 3 -22 7 -60 10 -85 33 -284 144 -619 277 -837 177 -291 367 -428
779 -561 125 -41 327 -97 387 -107 18 -3 61 -12 96 -20 34 -8 80 -17 102 -20
22 -4 58 -10 80 -15 65 -14 210 -36 310 -47 28 -3 55 -9 60 -13 15 -12 11
-926 -4 -1010 -32 -174 -97 -294 -205 -378 -60 -47 -217 -77 -451 -88 -71 -3
-130 -6 -131 -7 -4 -4 -6 -53 -5 -98 l1 -46 1208 1 1207 1 3 73 c2 39 -1 72
-5 73 -4 0 -57 2 -118 4 -154 5 -269 19 -355 42 -112 31 -188 100 -250 228
-68 143 -72 178 -74 714 -1 303 3 479 9 487 6 6 35 14 65 17 146 14 521 84
710 133 341 88 613 199 755 308 165 126 303 323 411 587 39 97 97 282 110 353
3 16 6 32 8 35 2 3 7 26 10 51 3 25 8 56 11 69 2 13 7 46 10 75 3 28 8 69 11
91 3 22 7 315 9 650 4 578 7 672 21 755 14 83 57 173 101 212 46 41 92 50 258
51 l160 1 5 70 c3 39 3 83 1 99 l-3 27 -97 1 c-380 5 -453 2 -591 -24 -253
-50 -392 -144 -483 -328 -66 -133 -123 -355 -152 -589 -28 -222 -34 -331 -40
-675 -6 -344 -14 -633 -20 -665 -2 -14 -6 -54 -9 -90 -38 -414 -171 -640 -476
-802 -106 -56 -311 -124 -436 -144 -21 -3 -42 -8 -45 -9 -3 -2 -28 -7 -55 -11
-27 -3 -52 -8 -55 -10 -3 -2 -51 -6 -105 -10 l-99 -6 1 1348 c0 742 4 1376 8
1409 15 127 55 214 125 278 84 76 251 116 511 121 l85 1 1 95 c0 52 -1 100 -3
106 -4 11 -2262 16 -2264 5 -1 -3 -3 -51 -5 -106 l-2 -100 86 -2 c453 -13 595
-100 638 -388 4 -27 8 -661 8 -1409 l1 -1358 -85 6 c-47 3 -95 8 -107 10 -11
3 -43 8 -70 12 -26 3 -77 13 -113 21 -36 8 -81 18 -100 22 -131 29 -337 118
-435 188 -149 107 -259 259 -304 423 -7 25 -16 59 -21 75 -5 17 -12 48 -15 70
-3 22 -7 49 -9 60 -2 11 -7 52 -11 90 -4 39 -8 86 -11 105 -5 47 -13 324 -19
675 -3 160 -7 313 -10 340 -18 235 -19 242 -35 355 -23 175 -52 306 -94 430
-50 146 -107 244 -178 305 -84 71 -244 136 -393 159 -22 3 -60 9 -85 12 -47 7
-384 11 -502 6z"/>
</g>
</svg>
